<?xml version="1.0" standalone="no"?>
<!DOCTYPE svg PUBLIC "-//W3C//DTD SVG 20010904//EN"
 "http://www.w3.org/TR/2001/REC-SVG-20010904/DTD/svg10.dtd">
<svg version="1.0" xmlns="http://www.w3.org/2000/svg"
 width="1563.000000pt" height="1563.000000pt" viewBox="0 0 1563.000000 1563.000000"
 preserveAspectRatio="xMidYMid meet">

<g transform="translate(0.000000,1563.000000) scale(0.100000,-0.100000)"
fill="#000000" stroke="none">
<path d="M7380 13343 c-80 -4 -295 -32 -370 -48 -36 -8 -108 -21 -160 -30 -94
-15 -308 -67 -359 -86 -14 -6 -48 -15 -75 -20 -27 -5 -90 -25 -140 -45 -50
-20 -107 -41 -126 -46 -19 -5 -69 -27 -110 -47 -41 -21 -87 -41 -103 -45 -37
-9 -251 -116 -312 -156 -16 -11 -49 -29 -72 -40 -23 -11 -43 -24 -45 -28 -2
-4 -32 -25 -68 -46 -36 -22 -69 -45 -75 -52 -5 -6 -37 -30 -70 -53 -33 -23
-79 -56 -102 -74 -23 -17 -61 -45 -84 -62 -68 -48 -312 -268 -398 -360 -31
-33 -97 -102 -148 -155 -50 -52 -108 -115 -128 -140 -21 -25 -44 -49 -51 -53
-8 -4 -23 -25 -33 -45 -11 -20 -37 -58 -58 -84 -21 -26 -58 -74 -83 -107 -25
-34 -61 -82 -81 -108 -20 -27 -46 -66 -57 -89 -12 -23 -37 -62 -56 -87 -19
-25 -47 -70 -62 -99 -14 -29 -36 -66 -48 -83 -12 -16 -29 -46 -36 -65 -8 -19
-31 -65 -52 -102 -21 -37 -38 -74 -38 -81 0 -8 -8 -25 -18 -38 -10 -13 -26
-44 -34 -69 -58 -164 -115 -309 -126 -323 -5 -7 -15 -49 -20 -93 -6 -45 -20
-103 -30 -130 -49 -124 -107 -515 -122 -819 -16 -319 -19 -1253 -10 -3220 6
-1182 11 -1698 19 -1740 11 -57 24 -102 72 -255 25 -79 80 -197 124 -265 17
-27 40 -63 49 -79 20 -32 176 -188 253 -253 27 -22 65 -48 83 -56 19 -7 60
-30 90 -49 30 -19 66 -39 80 -43 14 -4 51 -18 84 -32 161 -67 399 -94 655 -75
151 12 168 15 298 61 165 58 323 132 377 174 22 17 55 40 75 50 20 11 88 56
151 100 120 84 386 247 404 247 5 0 17 6 25 14 18 16 141 61 221 83 82 22 267
19 365 -5 115 -28 135 -36 280 -109 153 -76 228 -122 296 -181 27 -23 53 -42
58 -42 5 0 36 -21 70 -47 219 -170 431 -299 588 -359 212 -81 541 -98 708 -37
144 52 188 73 255 117 96 64 230 166 230 175 0 4 15 23 34 43 45 48 102 137
142 224 18 38 50 101 72 140 22 38 45 86 53 107 16 46 91 137 145 177 108 79
267 96 434 47 91 -27 178 -65 210 -92 8 -7 28 -16 45 -19 16 -4 36 -13 43 -19
20 -16 115 -55 229 -93 143 -47 302 -63 428 -42 100 17 230 62 302 104 27 15
77 43 112 62 84 46 209 172 262 265 23 40 49 83 57 97 33 51 65 137 103 280
22 83 28 585 28 2365 0 1791 -4 2167 -29 2400 -32 313 -83 573 -135 690 -7 17
-19 53 -25 80 -29 121 -90 281 -164 435 -20 41 -36 82 -36 90 0 9 -5 21 -12
28 -7 7 -35 57 -63 111 -99 195 -186 341 -262 443 -24 31 -43 61 -43 66 0 5
-7 15 -15 22 -8 7 -42 51 -76 99 -34 47 -66 88 -71 89 -5 2 -24 25 -44 50 -82
109 -411 443 -539 547 -38 31 -98 82 -133 113 -35 31 -87 73 -115 92 -29 19
-79 55 -112 80 -54 41 -184 125 -259 168 -15 10 -44 27 -62 39 -19 12 -82 48
-142 79 -59 32 -116 63 -127 71 -11 7 -25 13 -32 13 -8 0 -59 23 -114 50 -55
28 -105 50 -111 50 -6 0 -60 20 -122 45 -61 25 -147 54 -191 66 -148 38 -180
47 -235 62 -30 8 -95 22 -145 31 -49 9 -106 21 -125 26 -156 42 -381 60 -735
58 -176 -1 -345 -3 -375 -5z m780 -972 c102 -11 196 -24 210 -29 14 -5 59 -15
100 -21 41 -7 93 -18 115 -26 22 -8 62 -19 90 -25 27 -6 63 -17 80 -25 16 -8
51 -19 78 -25 26 -5 64 -19 85 -30 20 -11 42 -20 48 -20 6 0 36 -11 65 -24 30
-12 83 -35 119 -51 131 -55 360 -180 360 -196 0 -5 6 -9 14 -9 7 0 30 -13 51
-30 21 -16 42 -30 48 -30 6 0 17 -7 26 -15 9 -9 50 -41 91 -72 92 -69 127
-101 305 -278 137 -138 253 -261 298 -319 12 -16 51 -65 87 -110 36 -44 83
-108 105 -141 22 -33 42 -62 45 -65 4 -4 55 -83 88 -135 52 -84 232 -477 232
-506 0 -6 9 -30 20 -55 11 -24 23 -59 26 -77 3 -17 14 -54 24 -82 10 -27 21
-75 25 -105 4 -30 13 -77 21 -103 7 -27 18 -108 24 -180 6 -73 16 -177 22
-232 8 -69 13 -732 15 -2149 l4 -2048 -22 -70 c-33 -108 -106 -168 -184 -152
-40 8 -174 53 -205 69 -14 7 -54 26 -90 43 -36 16 -90 42 -120 56 -30 14 -62
26 -70 26 -9 0 -25 6 -36 14 -11 8 -49 22 -84 31 -36 9 -73 21 -83 27 -11 5
-78 16 -151 24 -161 18 -404 4 -472 -26 -23 -10 -56 -21 -74 -25 -40 -9 -126
-52 -163 -82 -16 -13 -32 -23 -36 -23 -15 0 -123 -101 -195 -182 -9 -10 -35
-46 -58 -80 -23 -35 -45 -65 -49 -68 -4 -3 -14 -21 -23 -40 -9 -19 -27 -53
-40 -75 -29 -48 -57 -97 -115 -201 -53 -95 -81 -134 -142 -197 -78 -79 -150
-97 -283 -72 -47 8 -103 25 -123 37 -59 33 -116 70 -138 90 -67 61 -364 297
-422 335 -10 7 -34 24 -53 37 -19 14 -48 33 -65 42 -16 9 -32 20 -35 23 -3 3
-21 14 -40 24 -19 10 -55 30 -80 44 -77 44 -175 93 -185 93 -6 0 -29 9 -50 20
-22 12 -60 25 -85 31 -24 5 -58 16 -75 24 -33 15 -137 30 -282 41 -126 9 -339
-12 -430 -42 -39 -13 -80 -24 -90 -24 -10 0 -27 -6 -38 -13 -11 -7 -36 -19
-55 -27 -45 -17 -141 -64 -205 -100 -27 -16 -66 -37 -85 -47 -19 -10 -39 -23
-45 -30 -5 -7 -21 -17 -35 -23 -14 -6 -43 -24 -65 -40 -44 -33 -303 -209 -369
-251 -74 -48 -259 -137 -330 -160 -54 -16 -96 -22 -185 -22 -104 -1 -124 1
-194 27 -65 24 -89 40 -138 88 -32 33 -59 65 -59 71 0 7 -9 30 -21 51 -11 22
-24 73 -29 119 -13 107 -12 4459 0 4712 9 184 34 382 66 515 9 36 20 88 25
115 5 28 18 75 28 105 11 30 34 102 52 159 18 56 40 119 51 139 10 20 18 42
18 50 0 14 101 222 150 307 16 28 33 60 39 73 6 12 19 35 29 50 10 15 43 63
72 107 109 164 273 362 460 557 47 48 89 88 93 88 5 0 22 14 39 30 32 32 143
120 152 120 3 0 16 10 29 23 30 28 143 107 277 193 56 36 268 154 277 154 4 0
30 11 58 24 81 40 167 74 212 86 23 6 45 15 48 20 3 5 31 14 63 21 31 7 63 17
70 22 13 10 120 39 237 63 39 8 111 24 160 34 50 11 180 27 290 35 110 9 205
18 210 21 22 9 401 -7 575 -25z"/>
</g>
</svg>
