<?xml version="1.0" standalone="no"?>
<!DOCTYPE svg PUBLIC "-//W3C//DTD SVG 20010904//EN"
 "http://www.w3.org/TR/2001/REC-SVG-20010904/DTD/svg10.dtd">
<svg version="1.0" xmlns="http://www.w3.org/2000/svg"
 width="700.000000pt" height="613.000000pt" viewBox="0 0 700.000000 613.000000"
 preserveAspectRatio="xMidYMid meet">

<g transform="translate(0.000000,613.000000) scale(0.100000,-0.100000)"
fill="#000000" stroke="none">
<path d="M3705 5906 c-121 -31 -240 -96 -339 -185 l-56 -51 -95 0 c-146 0
-179 -16 -324 -158 -130 -128 -138 -141 -236 -369 -102 -238 -185 -352 -361
-494 -129 -105 -316 -291 -406 -405 -123 -155 -254 -372 -329 -544 -80 -186
-156 -440 -174 -584 -4 -31 -10 -58 -14 -60 -4 -3 -103 47 -221 110 -260 137
-424 213 -579 264 -196 66 -301 63 -330 -8 -19 -46 7 -83 114 -158 50 -35 110
-80 134 -101 43 -36 43 -36 22 -52 -12 -9 -71 -43 -132 -75 -125 -68 -172
-112 -167 -158 2 -20 13 -39 31 -52 25 -18 47 -22 177 -26 82 -3 152 -8 155
-12 15 -15 -12 -58 -85 -133 -109 -113 -122 -144 -75 -190 35 -36 120 -34 256
4 l104 29 80 -48 c137 -82 164 -93 245 -98 90 -6 106 -16 225 -132 l84 -82 32
-111 c244 -867 955 -1548 1829 -1751 216 -50 310 -60 565 -61 259 0 366 11
580 62 839 198 1528 831 1795 1649 l34 102 72 4 c85 4 114 23 114 72 -1 41
-18 69 -78 130 l-51 51 10 75 c6 41 11 75 12 76 1 1 43 -7 92 -17 266 -52 375
-32 375 71 0 112 -104 186 -350 249 l-105 27 -7 94 c-3 52 -9 116 -12 141 l-6
46 67 44 c81 52 159 123 179 161 31 59 8 119 -51 134 -29 7 -210 -1 -240 -11
-19 -6 -25 6 -63 122 -131 388 -393 786 -693 1050 -424 372 -905 582 -1448
632 -115 11 -138 21 -94 43 22 11 27 19 24 38 -11 74 -14 71 85 96 105 25 173
53 221 90 40 30 85 115 81 152 -4 35 -36 39 -142 17 -95 -20 -120 -14 -161 38
-15 19 -43 72 -61 117 -38 94 -55 117 -101 136 -40 17 -140 17 -208 0z m185
-92 c17 -15 49 -63 72 -108 46 -93 68 -123 106 -148 33 -22 100 -23 166 -3 27
8 55 15 63 15 23 0 14 -40 -14 -67 -42 -39 -180 -100 -273 -121 -82 -18 -89
-22 -107 -70 -8 -22 -11 -19 -42 37 -19 33 -40 62 -47 65 -29 11 -24 -18 15
-88 64 -117 81 -200 81 -396 0 -203 16 -278 90 -418 101 -191 135 -341 106
-464 -18 -76 -75 -196 -147 -309 -81 -125 -62 -136 32 -19 73 92 140 221 163
318 21 84 1 78 205 61 73 -6 167 -19 208 -30 84 -21 236 -90 310 -140 71 -48
163 -129 163 -144 0 -6 -402 -218 -892 -470 -491 -252 -942 -484 -1003 -515
-371 -193 -720 -370 -728 -370 -11 0 -45 124 -52 190 l-7 65 59 20 c36 12 58
26 58 35 0 25 -151 15 -239 -17 -121 -43 -252 -110 -369 -190 -101 -68 -160
-97 -239 -117 l-27 -6 6 50 c7 61 -8 66 -36 12 -31 -62 -33 -92 -11 -156 35
-103 27 -146 -29 -146 -49 0 -86 25 -161 110 -36 39 -85 83 -110 97 -25 14
-66 39 -92 55 -70 44 -105 51 -129 27 -10 -10 -19 -23 -19 -29 0 -5 -4 -10 -8
-10 -4 0 -70 45 -147 100 -76 55 -145 100 -152 100 -11 0 -14 -11 -11 -42 l3
-43 -65 -18 c-36 -9 -87 -16 -115 -15 -46 3 -50 5 -53 30 -3 21 6 35 36 63 22
19 59 65 82 100 23 36 45 65 49 65 3 0 24 -12 46 -25 22 -14 46 -25 53 -25 25
0 -17 58 -66 92 -47 33 -47 33 -193 38 -126 4 -150 8 -168 24 -12 11 -21 27
-21 37 0 17 66 65 215 157 l49 31 43 -40 c49 -45 73 -50 73 -16 0 52 -92 145
-240 244 -98 66 -128 98 -113 121 18 29 112 20 240 -23 84 -28 182 -75 390
-189 153 -84 289 -159 303 -168 36 -24 156 -68 217 -79 96 -18 122 25 32 53
-22 6 -38 14 -37 18 5 11 123 109 201 167 123 92 196 162 276 270 63 84 103
124 201 204 68 55 132 105 142 110 18 10 30 1 93 -66 57 -62 73 -74 78 -61 8
21 0 38 -92 185 -74 119 -145 284 -162 376 -13 73 5 143 72 276 43 86 67 119
148 203 123 129 216 268 301 454 103 225 106 230 210 335 119 118 153 135 278
141 106 5 136 18 262 111 138 102 190 122 322 124 58 1 70 -2 98 -25z m2570
-2499 c52 -27 37 -67 -51 -131 -173 -126 -252 -202 -321 -308 -33 -51 -38 -67
-38 -116 0 -58 18 -99 38 -86 7 4 12 25 12 47 l0 40 38 -7 c104 -18 428 -106
457 -124 85 -53 120 -131 73 -164 -31 -22 -134 -20 -253 4 -53 11 -115 20
-137 20 -57 0 -174 -29 -199 -49 -21 -17 -21 -18 68 -89 152 -121 217 -207
193 -252 -8 -16 -21 -20 -59 -20 -67 0 -144 42 -271 146 -58 48 -123 95 -145
105 -62 29 -136 24 -266 -16 -135 -41 -190 -50 -244 -37 l-40 9 39 17 c59 26
116 67 116 83 0 18 0 18 -140 -37 -194 -75 -279 -94 -420 -95 -104 0 -131 3
-153 18 -29 19 -42 54 -34 90 13 51 94 153 162 203 74 56 104 89 105 117 0 27
-31 20 -67 -15 l-33 -32 -60 59 c-33 33 -56 62 -52 66 4 4 133 71 286 150
l279 143 103 4 104 3 -6 -31 c-4 -16 -3 -30 2 -30 41 0 426 170 568 250 129
73 277 101 346 65z m-1721 -638 c25 -23 57 -50 70 -59 l23 -16 -61 -74 c-119
-141 -151 -247 -91 -306 26 -26 40 -31 106 -37 88 -9 249 7 314 30 35 13 93
17 263 18 119 1 217 1 217 0 0 -15 -69 -204 -98 -267 -150 -331 -411 -625
-719 -810 -147 -88 -357 -172 -528 -210 -320 -72 -674 -52 -984 56 -167 58
-466 221 -466 255 0 6 45 49 100 95 55 46 116 107 135 134 l35 50 86 -37 c198
-85 537 -184 737 -214 134 -20 352 -29 372 -16 28 19 -4 29 -150 46 -306 35
-627 125 -927 261 -82 37 -255 147 -286 182 -18 20 -17 21 65 65 46 24 182 95
303 157 208 107 332 171 680 350 83 43 267 137 410 211 143 73 278 143 300
156 22 12 42 23 44 23 2 0 25 -19 50 -43z"/>
<path d="M3065 5322 c-53 -33 -95 -89 -95 -128 0 -31 3 -35 22 -32 17 2 25 13
33 47 7 31 22 54 53 81 23 21 42 40 42 44 0 11 -25 6 -55 -12z"/>
<path d="M3460 5308 c0 -19 132 -138 152 -138 15 0 16 4 7 27 -16 42 -57 91
-89 108 -35 18 -70 20 -70 3z"/>
<path d="M3043 5110 c-52 -21 -71 -135 -33 -197 28 -47 53 -43 80 13 17 34 21
55 16 87 l-6 42 25 -30 c14 -16 25 -24 25 -17 0 26 -29 80 -51 96 -26 18 -26
18 -56 6z"/>
<path d="M3436 5037 c-47 -47 -53 -136 -13 -191 30 -41 87 27 87 102 0 46 16
57 26 17 9 -38 28 -31 20 8 -15 77 -75 109 -120 64z"/>
<path d="M3283 4538 c-6 -7 -13 -21 -16 -30 -11 -30 -39 -37 -82 -21 -74 27
-75 27 -75 5 0 -31 64 -82 103 -82 45 0 87 44 94 99 6 41 -5 53 -24 29z"/>
<path d="M3091 4165 c-51 -44 -62 -168 -19 -223 39 -50 74 -54 120 -13 29 25
32 35 36 95 5 75 -8 117 -46 146 -33 26 -54 25 -91 -5z"/>
</g>
</svg>
