<svg xmlns="http://www.w3.org/2000/svg" width="700" height="613" viewBox="0 0 700 613" version="1.1"><path d="M 375 20.967 C 361.871 22.871, 347.119 30.290, 336 40.582 C 331.500 44.747, 331.500 44.747, 320.855 45.205 C 298.486 46.167, 280.263 62.864, 266.545 94.970 C 257.285 116.643, 248.438 130.855, 238.767 139.591 C 231.723 145.955, 227.282 152.348, 220.597 165.745 C 210.235 186.512, 209.897 193.872, 218.512 211.053 C 221.043 216.100, 226 229.629, 226 231.489 C 226 231.642, 222.287 234.465, 217.750 237.763 C 205.185 246.894, 195.724 256.182, 189.726 265.272 C 183.721 274.373, 179.391 278.696, 167.500 287.462 C 163.100 290.706, 156.009 296.196, 151.741 299.663 C 141.017 308.374, 139.251 309.452, 137.745 308.209 C 133.247 304.497, 79.132 277.356, 66.835 272.645 C 24.916 256.587, 6.467 267.772, 38.587 289.771 C 54.884 300.933, 55.006 299.600, 36.791 309.383 C 11.455 322.990, 14.550 333.930, 43.750 333.978 C 51.286 333.991, 57 334.403, 57 334.935 C 57 337.707, 54.493 341.209, 48.004 347.500 C 38.829 356.395, 37.216 359.754, 39.704 364.781 C 42.992 371.422, 51.221 371.480, 73.223 365.015 C 77.326 363.809, 78.618 364.269, 88.358 370.400 C 97.518 376.165, 102.768 378.111, 109.363 378.185 C 117.361 378.274, 119.722 379.593, 130.500 389.993 C 151.472 410.229, 169.611 405.961, 162.537 382.456 C 161.732 379.781, 161.169 377.521, 161.287 377.433 C 161.404 377.344, 165.219 376.047, 169.764 374.549 C 174.309 373.052, 180.159 370.364, 182.764 368.577 C 189.514 363.945, 204.022 355.688, 204.525 356.192 C 204.758 356.425, 205.632 361.477, 206.466 367.417 C 208.030 378.564, 209.685 386, 210.602 386 C 210.977 386, 238.826 371.703, 240.710 370.543 C 240.825 370.472, 240.008 367.508, 238.894 363.957 C 236.355 355.859, 235.182 344, 236.920 344 C 239.114 344, 248 339.775, 248 338.731 C 248 330.972, 209.304 344.563, 185.719 360.605 C 176.330 366.992, 165.404 372, 160.860 372 C 160.324 372, 160.211 369.888, 160.594 367 C 161.427 360.723, 159.937 360.432, 157.089 366.316 C 154.672 371.308, 154.482 376.818, 156.529 382.500 C 159.417 390.517, 157.903 397.428, 153.460 396.509 C 152.107 396.229, 149.988 395.794, 148.750 395.542 C 146.445 395.073, 143.820 392.753, 133.719 382.254 C 130.539 378.949, 125.364 374.828, 122.219 373.095 C 119.074 371.362, 114.932 369.056, 113.016 367.972 C 107.986 365.126, 104.193 365.363, 102.961 368.602 C 101.665 372.011, 101.348 371.864, 85.478 360.466 C 70.409 349.643, 69.512 349.322, 70.275 355.015 C 70.927 359.872, 70.216 360.379, 59.707 362.553 C 46.044 365.378, 42.905 361, 52.042 351.863 C 54.815 349.090, 58.462 344.378, 60.147 341.394 C 63.298 335.809, 65.350 335.767, 71.450 341.160 C 75.245 344.516, 74.613 339.849, 70.750 335.993 C 65.010 330.263, 60.930 329.075, 47.457 329.209 C 23.201 329.450, 22.246 324.729, 43.788 311.060 C 55.076 303.897, 55.076 303.897, 59.679 307.949 C 66.967 314.364, 69.349 312.684, 64.558 304.509 C 61.613 299.484, 54.665 293.454, 42.202 285.110 C 22.898 272.184, 29.535 266.542, 54.500 274.656 C 61.254 276.852, 82.238 286.530, 85.500 288.954 C 86.050 289.363, 90.100 291.618, 94.500 293.965 C 98.900 296.313, 109.250 301.993, 117.500 306.589 C 133.794 315.665, 142.563 319, 150.130 319 C 156.741 319, 156.676 316.678, 150 314.306 C 145.643 312.759, 143.405 311, 145.793 311 C 146.230 311, 149.267 308.700, 152.543 305.889 C 155.819 303.078, 161.875 298.267, 166 295.197 C 179.113 285.438, 185.741 278.971, 193.724 268.151 C 200.240 259.320, 203.606 255.927, 214.500 247.212 C 231.141 233.899, 229.087 234.222, 237.681 243.568 C 247.405 254.146, 248.002 250.709, 238.940 236.323 C 223.859 212.386, 217.086 192.998, 219.963 182 C 222.991 170.426, 230.889 157.034, 240.889 146.519 C 252.867 133.923, 261.518 121.384, 268.685 106.229 C 283.791 74.287, 282.120 77.023, 293.038 66.364 C 305.989 53.721, 309.464 52.082, 323.500 51.994 C 331.061 51.946, 334.654 50.277, 348 40.609 C 372.349 22.971, 387.186 23.802, 397.049 43.357 C 404.605 58.340, 410.285 61.507, 422.270 57.424 C 431.511 54.275, 434.439 56.989, 428.202 62.923 C 423.436 67.457, 411.675 72.648, 400.603 75.105 C 392.460 76.912, 391.042 77.896, 391.015 81.750 C 390.990 85.428, 389.345 84.346, 385.956 78.424 C 383.043 73.331, 380.636 71.030, 379.457 72.210 C 379.206 72.461, 380.752 76.004, 382.894 80.083 C 390.128 93.861, 391.175 98.913, 391.476 121.500 C 391.782 144.441, 391.854 144.742, 401.897 165.189 C 416.282 194.477, 415.359 208.452, 397.121 237.470 C 388.058 251.889, 390.568 251.937, 401.261 237.548 C 409.525 226.429, 413.936 216.654, 416.458 203.872 C 416.936 201.450, 417.313 201.272, 421.239 201.608 C 454.060 204.421, 456.911 204.941, 470.319 210.561 C 480.967 215.024, 491.397 221.689, 499.546 229.237 C 509.390 238.356, 523.178 230.398, 514.650 220.519 C 494.195 196.826, 455.399 175.241, 420 167.856 C 408.822 165.525, 410.596 167.163, 404.153 153.214 C 395.667 134.842, 391.453 93.935, 397.750 91.067 C 400.199 89.952, 400.495 88.214, 399.079 83.274 C 398.177 80.130, 398.236 80.048, 401.829 79.442 C 415.864 77.073, 429.029 71.337, 433.133 65.800 C 441.879 54, 439.716 46.789, 428.342 49.831 C 412.513 54.065, 408.805 52.126, 402.033 36.079 C 395.840 21.402, 390.929 18.657, 375 20.967 M 302.795 103.206 C 298.857 106.195, 297.828 115.149, 300.752 121 C 304.292 128.087, 310.452 122.672, 310.301 112.607 C 310.224 107.543, 310.224 107.543, 312.695 110.522 C 315.086 113.405, 315.143 113.421, 314.478 111 C 312.383 103.381, 307.157 99.895, 302.795 103.206 M 344.954 108.282 C 339.872 112.286, 338.322 121.351, 341.732 127.124 C 344.970 132.605, 349.819 127.964, 350.903 118.348 C 351.562 112.500, 351.562 112.500, 353.241 115.500 C 354.799 118.285, 354.923 118.335, 354.960 116.200 C 355.074 109.665, 349.149 104.976, 344.954 108.282 M 308.783 196.750 C 300.322 206.450, 306.628 226.612, 316.637 221.858 C 326.504 217.171, 324.399 195, 314.087 195 C 311.738 195, 309.733 195.662, 308.783 196.750 M 631.500 273.868 C 626.258 274.826, 621.040 277.092, 606.500 284.728 C 580.425 298.422, 576.515 300.129, 568.691 301.227 C 560.255 302.410, 558 301.960, 558 299.090 C 558 295.850, 556.944 296.089, 546.500 301.691 C 536.500 307.054, 536.500 307.054, 545.500 306.833 C 554.569 306.610, 555.464 306.962, 554.397 310.325 C 552.821 315.291, 561.148 312.156, 602.500 292.219 C 628.304 279.778, 634.698 277.816, 642.399 279.972 C 651.506 282.522, 651.489 287.474, 642.349 293.959 C 616.673 312.177, 604.266 327.129, 605.225 338.699 C 605.918 347.055, 610 348.972, 610 340.941 C 610 335.865, 609.027 335.806, 635.530 342.496 C 660.094 348.697, 665.595 351.549, 669.060 359.882 C 672.584 368.355, 663.766 370.483, 642.310 366.337 C 618.438 361.723, 600.715 366.716, 611.664 374.969 C 635.226 392.729, 642.349 409.050, 624.767 404.992 C 617.705 403.362, 613.520 400.828, 600.395 390.237 C 583.434 376.551, 578.496 375.545, 559.212 381.851 C 541.088 387.779, 523.423 387.226, 537.418 381.170 C 542.665 378.900, 547.907 374.574, 546.779 373.446 C 546.470 373.136, 543.402 374.068, 539.962 375.516 C 485.543 398.421, 450.785 388.056, 484.934 359.107 C 494.269 351.193, 499 346.325, 499 344.632 C 499 342.129, 496.430 342.683, 492.653 346 C 488.160 349.945, 488.036 349.914, 482.073 343.390 C 477.068 337.913, 476.874 337.809, 473.927 339.030 C 469.820 340.731, 470.446 342.525, 477.002 347.840 C 483.988 353.504, 483.953 352.549, 477.451 360.054 C 453.431 387.775, 469.585 403.353, 509.860 391.305 C 514.362 389.958, 518.830 389.672, 532 389.885 C 544.341 390.086, 550.391 389.743, 556 388.524 C 560.125 387.629, 566.539 386.238, 570.252 385.434 C 579.503 383.431, 583.759 384.629, 592.575 391.715 C 612.909 408.059, 627.978 413.961, 638.331 409.635 C 646.510 406.217, 645.589 398.532, 635.968 389.919 C 611.885 368.359, 613.001 365.482, 642.998 371.792 C 670.247 377.524, 682.798 373.105, 679.029 359.108 C 676.469 349.601, 655.067 338.776, 634.500 336.586 C 626.932 335.780, 611.499 332.867, 610.712 332.096 C 608.109 329.546, 625.268 312.273, 639.500 303.116 C 666.899 285.488, 662.188 268.263, 631.500 273.868 M 281.343 437.998 C 279.607 439.020, 270.945 443.513, 262.093 447.984 C 253.242 452.454, 246 456.363, 246 456.670 C 246 458.083, 257.330 470.084, 265 476.794 C 270.926 481.978, 273.405 484.801, 273.187 486.115 C 272.151 492.359, 298.392 471.310, 303.565 461.748 C 305.054 458.996, 305.054 458.996, 308.777 460.639 C 344.971 476.611, 403.974 490.041, 422.600 486.547 C 430.816 485.006, 427.224 483.762, 408 481.492 C 365.948 476.525, 318.432 459.999, 294.500 442.015 C 285.627 435.347, 285.774 435.392, 281.343 437.998" stroke="none" fill="#000000" fill-rule="evenodd"/><path d="M 369.045 30.043 C 362.742 31.349, 355.751 35.054, 346.500 41.991 C 334.706 50.835, 331.546 52.128, 319.637 52.990 C 303.369 54.167, 287.455 67.178, 278.311 86.777 C 265.947 113.281, 263.551 117.944, 258.234 125.856 C 255.081 130.549, 247.775 139.380, 242 145.480 C 214.299 174.738, 213.451 195.948, 238.426 234.889 C 247.516 249.063, 248.772 257.484, 240.231 247 C 233.639 238.908, 230.046 235.903, 228.181 236.922 C 219.776 241.516, 199.870 259.801, 194.293 268.049 C 188.897 276.030, 180.321 284.582, 169.031 293.239 C 144.701 311.894, 144.410 312.207, 149.881 313.846 C 160.718 317.093, 155.489 321.205, 143.839 318.598 C 135.170 316.659, 131.754 314.995, 96.983 295.780 C 58.344 274.427, 35.539 266.388, 32.057 272.893 C 30.538 275.733, 33.560 278.919, 45.444 287.009 C 59.774 296.763, 69.014 307.193, 67.295 311.673 C 66.660 313.328, 62.664 311.356, 58.201 307.188 C 55.051 304.245, 55.051 304.245, 42.025 312.784 C 22.983 325.268, 24.061 328.191, 48.007 329 C 62.678 329.496, 62.846 329.528, 67.154 332.648 C 76.154 339.167, 77.788 345.313, 69.101 339.967 C 63.091 336.269, 63.679 336.166, 60.571 341.469 C 59.131 343.927, 55.488 348.599, 52.476 351.852 C 43.014 362.072, 47.061 365.630, 63.346 361.410 C 71.118 359.396, 71.105 359.406, 69.990 356.473 C 67.346 349.519, 70.829 349.584, 80.645 356.672 C 95.231 367.205, 101.104 371.230, 101.355 370.864 C 101.493 370.664, 102.405 369.223, 103.383 367.662 C 105.612 364.105, 107.711 364.487, 117.500 370.232 C 121.350 372.491, 125.913 375.169, 127.639 376.183 C 129.366 377.197, 133.809 381.413, 137.514 385.552 C 152.145 401.900, 162.317 399.714, 155.948 381.592 C 153.706 375.214, 153.943 372.070, 157.142 365.750 C 159.793 360.513, 161.385 360.893, 160.740 366.610 C 159.963 373.507, 170.976 370.987, 184.165 361.250 C 199.413 349.995, 222.404 339.535, 235.685 337.812 C 249.365 336.037, 252.912 338.663, 242.171 342.613 C 239.602 343.558, 237.093 344.686, 236.596 345.119 C 234.967 346.541, 239.810 370, 241.732 370 C 243.011 370, 504 235.469, 504 234.810 C 504 232.097, 487.494 219.292, 477.500 214.253 C 453.848 202.325, 418.030 197.971, 416.138 206.792 C 414.487 214.489, 410.499 224.314, 406.434 230.697 C 400.889 239.402, 393.013 249, 391.414 249 C 389.408 249, 389.425 248.960, 395.422 239.665 C 415.021 209.283, 416.050 195.340, 401.005 164 C 391.743 144.708, 391 141.471, 391 120.402 C 391 101.068, 388.801 90.273, 382.912 80.702 C 381.288 78.063, 379.856 74.963, 379.730 73.812 C 379.265 69.585, 381.895 71.065, 385.556 77.092 C 389.316 83.282, 389.316 83.282, 390.908 79.940 C 392.400 76.806, 393.078 76.463, 401.752 74.449 C 416.677 70.985, 431 62.953, 431 58.048 C 431 55.509, 429.844 55.497, 421.855 57.957 C 410.011 61.604, 404.698 58.643, 397.075 44.143 C 389.219 29.200, 384.519 26.836, 369.045 30.043 M 304.020 102.284 C 298.400 105.128, 297.102 118.286, 301.933 123.429 C 306.198 127.968, 312.017 119.875, 310.683 111.259 C 310.100 107.500, 310.100 107.500, 312.545 110.500 C 315.420 114.028, 316.016 111.865, 313.506 107.011 C 310.856 101.887, 307.807 100.368, 304.020 102.284 M 343.836 108.914 C 337.215 114.122, 338.644 131.206, 345.585 129.833 C 348.089 129.337, 351 123.118, 351 118.266 C 351 113.603, 352.590 112.518, 353.589 116.500 C 354.535 120.268, 356.366 119.590, 355.613 115.750 C 354.149 108.275, 348.683 105.102, 343.836 108.914 M 310.303 195.197 C 302.925 198.761, 302.678 216.114, 309.925 221.718 C 314.436 225.207, 321.252 220.716, 322.865 213.192 C 325.400 201.374, 318.367 191.301, 310.303 195.197 M 626.500 281.389 C 624.300 282.079, 617.446 285.197, 611.269 288.318 C 571.672 308.327, 551.925 315.957, 554.025 310.435 C 554.561 309.024, 555 307.652, 555 307.387 C 555 301.770, 532.577 308.632, 505.463 322.545 C 476.782 337.262, 476.782 337.262, 482.869 343.349 C 488.955 349.435, 488.955 349.435, 492.275 346.218 C 495.440 343.151, 497.911 342.245, 499.307 343.640 C 500.714 345.047, 496.119 350.570, 489.350 355.609 C 449.871 384.994, 479.932 398.680, 535.771 376.743 C 541.420 374.524, 546.354 373.020, 546.735 373.402 C 548.120 374.787, 545.180 377.563, 539.220 380.500 C 525.493 387.263, 538.632 387.841, 559.415 381.389 C 579.079 375.284, 584.804 376.574, 602 390.989 C 613.977 401.028, 619.469 404.051, 626.967 404.731 C 640.515 405.959, 635.641 394.841, 615.435 378.421 C 604.579 369.600, 604.612 369.669, 610.250 367.623 C 621.989 363.363, 628.170 363.051, 642.500 366 C 665.199 370.670, 675.256 366.195, 665.930 355.573 C 660.917 349.864, 657.419 348.365, 636.981 343.172 C 608.250 335.871, 610 335.983, 610 341.455 C 610 349.985, 604.844 346.399, 604.630 337.720 C 604.469 331.184, 608.340 324.194, 617.809 313.920 C 623.340 307.919, 626.993 304.853, 640.500 294.874 C 649.958 287.887, 651.325 284.331, 645.599 281.614 C 641.565 279.700, 632.235 279.590, 626.500 281.389 M 433.912 359.393 C 414.436 369.419, 378.475 387.923, 354 400.513 C 291.073 432.884, 287.488 434.784, 287.606 435.689 C 289.247 448.256, 364.213 476.200, 410.500 481.500 C 424.610 483.116, 426.859 483.801, 425.462 486.061 C 421.061 493.183, 350.159 478.659, 314.193 463.269 C 309.564 461.288, 305.557 460.109, 305.143 460.607 C 304.734 461.098, 302.685 463.662, 300.588 466.305 C 298.492 468.948, 292.552 474.558, 287.388 478.773 C 276.297 487.827, 276.544 486.940, 283.750 491.815 C 381.720 558.086, 516.901 512.246, 554.406 400.035 C 558.586 387.528, 559.629 388.815, 546.321 390.057 C 539.172 390.725, 532.009 390.760, 525.994 390.157 C 518.715 389.427, 515.997 389.521, 513.429 390.594 C 505.410 393.945, 482.799 396.110, 474.065 394.363 C 460.483 391.647, 462.750 375.278, 479.182 357.424 C 495.368 339.838, 469.734 340.953, 433.912 359.393" stroke="none" fill="#ffffff" fill-rule="evenodd"/><path d="M 395.796 111.979 C 396.143 133.696, 396.928 137.571, 404.153 153.214 C 410.596 167.163, 408.822 165.525, 420 167.856 C 455.399 175.241, 494.195 196.826, 514.650 220.519 C 520.502 227.298, 520.637 226.634, 512.510 231.065 C 505.859 234.691, 505.424 234.794, 503.527 233.188 C 501.640 231.590, 501.607 231.594, 502.910 233.274 C 503.666 234.250, 504.108 235.216, 503.893 235.420 C 503.037 236.231, 211.182 386, 210.458 386 C 209.678 386, 207.936 377.891, 206.466 367.417 C 205.632 361.477, 204.758 356.425, 204.525 356.192 C 204.022 355.688, 189.514 363.945, 182.764 368.577 C 180.159 370.364, 174.309 373.052, 169.764 374.549 C 165.219 376.047, 161.404 377.344, 161.287 377.433 C 161.169 377.521, 161.732 379.781, 162.537 382.456 C 167.369 398.512, 160.165 406.475, 145.761 401.001 C 142.867 399.901, 140.453 399.001, 140.396 399.001 C 140.340 399, 140.885 401.283, 141.609 404.072 C 176.692 539.323, 313.142 619.601, 448 584.333 C 529.530 563.011, 595.313 500.820, 622.003 419.830 C 625.231 410.034, 625.227 410.134, 622.385 409.550 C 616.150 408.268, 604.491 401.293, 592.575 391.715 C 588.344 388.314, 583.969 385.726, 581.328 385.061 C 577.043 383.982, 576.661 384.028, 559.961 387.619 C 558.233 387.991, 557.363 388.891, 557.235 390.437 C 557.131 391.687, 555.652 396.712, 553.947 401.604 C 515.101 513.110, 380.998 557.753, 283.500 491.636 C 279.799 489.126, 276.609 487.681, 275.173 487.865 C 273.342 488.100, 272.916 487.745, 273.173 486.197 C 273.409 484.778, 271.131 482.158, 265 476.794 C 257.330 470.084, 246 458.083, 246 456.670 C 246 456.363, 253.266 452.442, 262.146 447.957 C 271.026 443.472, 279.860 438.921, 281.777 437.845 C 283.694 436.768, 285.873 436.121, 286.619 436.407 C 287.365 436.694, 287.869 436.483, 287.738 435.939 C 287.494 434.923, 293.769 431.500, 331 412.344 C 441.924 355.271, 467.700 342.096, 468.976 341.820 C 469.788 341.644, 470.966 341.029, 471.594 340.454 C 476.734 335.743, 535.887 307.297, 540 307.558 C 544.183 307.824, 544.240 307.797, 540.805 307.172 C 537.111 306.500, 537.111 306.500, 547.112 301.316 C 554.759 297.353, 557.218 296.470, 557.557 297.566 C 559.083 302.503, 558.630 302.295, 566.218 301.547 C 575.520 300.631, 579.754 298.954, 598.760 288.659 C 607.417 283.970, 616.525 279.360, 619 278.416 C 621.475 277.472, 623.815 276.429, 624.200 276.100 C 624.817 275.571, 621.352 264.289, 616.491 251 C 590.404 179.692, 514.463 114.734, 439.500 99.605 C 396.004 90.827, 395.460 90.981, 395.796 111.979 M 226.950 149.116 C 185.569 181.940, 153.602 232.645, 140.969 285.500 C 135.447 308.606, 136.289 311.666, 146.073 304.037 C 149.608 301.281, 158.350 294.552, 165.500 289.083 C 180.623 277.516, 184.063 274.095, 190.449 264.276 C 195.732 256.152, 205.502 246.664, 217.750 237.763 C 222.287 234.465, 226 231.642, 226 231.489 C 226 229.629, 221.043 216.100, 218.512 211.053 C 212.831 199.723, 211.353 192.445, 213.059 184.185 C 214.487 177.272, 225.745 154.369, 230.669 148.359 C 235.228 142.796, 234.811 142.881, 226.950 149.116 M 625.087 313.545 C 617.754 320.353, 609.543 330.951, 610.712 332.096 C 611.145 332.521, 615.775 333.593, 621 334.478 C 626.225 335.364, 631.288 336.324, 632.250 336.611 C 634.381 337.249, 634.494 331.901, 632.664 317.045 C 631.500 307.589, 631.500 307.589, 625.087 313.545" stroke="none" fill="#c10e19" fill-rule="evenodd"/></svg>